<mxfile host="app.diagrams.net" modified="2022-12-13T02:16:27.517Z" agent="5.0 (Windows NT 10.0; Win64; x64) AppleWebKit/537.36 (KHTML, like Gecko) Chrome/101.0.0.0 Safari/537.36" etag="ueWxVuHniOJnILAJuiyk" version="20.6.2" type="github">
  <diagram id="6a731a19-8d31-9384-78a2-239565b7b9f0" name="Page-1">
    <mxGraphModel dx="768" dy="461" grid="1" gridSize="10" guides="1" tooltips="1" connect="1" arrows="1" fold="1" page="1" pageScale="1" pageWidth="1169" pageHeight="827" background="none" math="0" shadow="0">
      <root>
        <mxCell id="0" />
        <mxCell id="1" parent="0" />
        <mxCell id="26" value="" style="edgeStyle=elbowEdgeStyle;elbow=horizontal;exitX=0;exitY=0.5;exitPerimeter=0;entryX=0;entryY=0.5;entryPerimeter=0;fontStyle=1;strokeColor=#003366;strokeWidth=1;html=1;" parent="1" source="28" edge="1">
          <mxGeometry width="100" height="100" as="geometry">
            <mxPoint y="100" as="sourcePoint" />
            <mxPoint x="271" y="418.5" as="targetPoint" />
            <Array as="points">
              <mxPoint x="160" y="850" />
            </Array>
          </mxGeometry>
        </mxCell>
        <mxCell id="45" value="" style="edgeStyle=elbowEdgeStyle;elbow=horizontal;exitX=1;exitY=0.5;exitPerimeter=0;entryX=0.905;entryY=0.5;entryPerimeter=0;fontStyle=1;strokeColor=#003366;strokeWidth=1;html=1;" parent="1" target="34" edge="1">
          <mxGeometry width="100" height="100" as="geometry">
            <mxPoint x="380.5" y="1119.25" as="sourcePoint" />
            <mxPoint x="100" as="targetPoint" />
            <Array as="points">
              <mxPoint x="950" y="1320" />
            </Array>
          </mxGeometry>
        </mxCell>
        <mxCell id="54" value="" style="edgeStyle=elbowEdgeStyle;elbow=horizontal;exitX=0;exitY=0.5;exitPerimeter=0;entryX=0.095;entryY=0.5;entryPerimeter=0;fontStyle=1;strokeColor=#003366;strokeWidth=1;html=1;" parent="1" source="37" edge="1">
          <mxGeometry width="100" height="100" as="geometry">
            <mxPoint y="100" as="sourcePoint" />
            <mxPoint x="255.60500000000002" y="290" as="targetPoint" />
            <Array as="points">
              <mxPoint x="120" y="970" />
            </Array>
          </mxGeometry>
        </mxCell>
        <mxCell id="hDvIdTp2yuTxAKMjwn-4-67" style="edgeStyle=orthogonalEdgeStyle;rounded=0;orthogonalLoop=1;jettySize=auto;html=1;entryX=0.5;entryY=0;entryDx=0;entryDy=0;entryPerimeter=0;" edge="1" parent="1" source="hDvIdTp2yuTxAKMjwn-4-56" target="hDvIdTp2yuTxAKMjwn-4-59">
          <mxGeometry relative="1" as="geometry" />
        </mxCell>
        <mxCell id="hDvIdTp2yuTxAKMjwn-4-56" value="开始" style="strokeWidth=2;html=1;shape=mxgraph.flowchart.start_1;whiteSpace=wrap;" vertex="1" parent="1">
          <mxGeometry x="240" y="40" width="100" height="60" as="geometry" />
        </mxCell>
        <mxCell id="hDvIdTp2yuTxAKMjwn-4-65" style="edgeStyle=orthogonalEdgeStyle;rounded=0;orthogonalLoop=1;jettySize=auto;html=1;entryX=0;entryY=0.5;entryDx=0;entryDy=0;" edge="1" parent="1" source="hDvIdTp2yuTxAKMjwn-4-59" target="hDvIdTp2yuTxAKMjwn-4-64">
          <mxGeometry relative="1" as="geometry" />
        </mxCell>
        <mxCell id="hDvIdTp2yuTxAKMjwn-4-68" style="edgeStyle=orthogonalEdgeStyle;rounded=0;orthogonalLoop=1;jettySize=auto;html=1;entryX=0.5;entryY=0;entryDx=0;entryDy=0;" edge="1" parent="1" source="hDvIdTp2yuTxAKMjwn-4-59" target="hDvIdTp2yuTxAKMjwn-4-66">
          <mxGeometry relative="1" as="geometry" />
        </mxCell>
        <mxCell id="hDvIdTp2yuTxAKMjwn-4-59" value="查询xxl任务是否已配置" style="strokeWidth=2;html=1;shape=mxgraph.flowchart.decision;whiteSpace=wrap;" vertex="1" parent="1">
          <mxGeometry x="240" y="150" width="100" height="100" as="geometry" />
        </mxCell>
        <mxCell id="hDvIdTp2yuTxAKMjwn-4-74" value="" style="edgeStyle=orthogonalEdgeStyle;rounded=0;orthogonalLoop=1;jettySize=auto;html=1;" edge="1" parent="1" source="hDvIdTp2yuTxAKMjwn-4-64" target="hDvIdTp2yuTxAKMjwn-4-73">
          <mxGeometry relative="1" as="geometry" />
        </mxCell>
        <mxCell id="hDvIdTp2yuTxAKMjwn-4-64" value="抛出错误" style="shape=parallelogram;html=1;strokeWidth=2;perimeter=parallelogramPerimeter;whiteSpace=wrap;rounded=1;arcSize=12;size=0.23;" vertex="1" parent="1">
          <mxGeometry x="440" y="170" width="100" height="60" as="geometry" />
        </mxCell>
        <mxCell id="hDvIdTp2yuTxAKMjwn-4-75" value="" style="edgeStyle=orthogonalEdgeStyle;rounded=0;orthogonalLoop=1;jettySize=auto;html=1;" edge="1" parent="1" source="hDvIdTp2yuTxAKMjwn-4-66" target="hDvIdTp2yuTxAKMjwn-4-73">
          <mxGeometry relative="1" as="geometry" />
        </mxCell>
        <mxCell id="hDvIdTp2yuTxAKMjwn-4-66" value="带上落标id&lt;br&gt;触发任务" style="shape=parallelogram;html=1;strokeWidth=2;perimeter=parallelogramPerimeter;whiteSpace=wrap;rounded=1;arcSize=12;size=0.23;" vertex="1" parent="1">
          <mxGeometry x="240" y="300" width="100" height="60" as="geometry" />
        </mxCell>
        <mxCell id="hDvIdTp2yuTxAKMjwn-4-73" value="返回给前端界面" style="strokeWidth=2;html=1;shape=mxgraph.flowchart.terminator;whiteSpace=wrap;" vertex="1" parent="1">
          <mxGeometry x="440" y="305" width="100" height="50" as="geometry" />
        </mxCell>
      </root>
    </mxGraphModel>
  </diagram>
</mxfile>
